<?xml version="1.0" encoding="UTF-8" standalone="no"?>
<!DOCTYPE svg PUBLIC "-//W3C//DTD SVG 1.1//EN" "http://www.w3.org/Graphics/SVG/1.1/DTD/svg11.dtd">
<svg width="100%" height="100%" viewBox="0 0 659 621" version="1.1" xmlns="http://www.w3.org/2000/svg" xmlns:xlink="http://www.w3.org/1999/xlink" xml:space="preserve" xmlns:serif="http://www.serif.com/" style="fill-rule:evenodd;clip-rule:evenodd;stroke-linejoin:round;stroke-miterlimit:2;">
    <g transform="matrix(1,0,0,1,-33.5342,-178.153)">
        <g transform="matrix(11.4844,0,0,11.4844,566.581,678.732)">
            <path d="M0,-32.142C-5.56,-34.594 -14.45,-33.814 -17.243,-27.595C-17.923,-26.08 -16.429,-24.004 -14.754,-25.105C-12.569,-26.542 -10.908,-28.186 -8.277,-28.862C-5.142,-29.668 -1.787,-28.289 0.808,-26.656C7.172,-22.65 7.427,-14.378 4.57,-8.208C-0.68,3.129 -14.01,8.339 -25.67,4.894C-34.658,2.237 -41.025,-6.03 -42.979,-14.933C-45.217,-25.134 -40.886,-35.483 -33.038,-42.042C-32.256,-42.696 -33.284,-44.016 -34.124,-43.45C-56.377,-28.464 -46.439,7.601 -20.117,10.319C-5.052,11.874 10.615,-0.72 10.929,-16.116C11.074,-23.182 6.242,-29.389 0,-32.142" style="fill:rgb(60,60,59);fill-rule:nonzero;"/>
        </g>
        <g transform="matrix(11.4844,0,0,11.4844,428.368,357.692)">
            <path d="M0,8.843C-1.822,8.317 -3.792,8.433 -5.666,8.129C-7.474,7.835 -9.189,7.244 -10.807,6.413C-10.633,3.512 -9.755,0.896 -8.242,-1.629C-7.831,-2.316 -8.691,-3.301 -9.396,-2.784C-12.442,-0.553 -13.6,3.673 -13.762,7.278C-13.784,7.778 -13.47,8.295 -13.04,8.537C-9.456,10.553 -4.086,12.144 0,11.046C1.105,10.75 1.077,9.154 0,8.843" style="fill:rgb(60,60,59);fill-rule:nonzero;"/>
        </g>
    </g>
</svg>
