<?xml version="1.0" encoding="UTF-8" standalone="no"?>
<!DOCTYPE svg PUBLIC "-//W3C//DTD SVG 1.1//EN" "http://www.w3.org/Graphics/SVG/1.1/DTD/svg11.dtd">
<svg width="100%" height="100%" viewBox="0 0 672 371" version="1.1" xmlns="http://www.w3.org/2000/svg" xmlns:xlink="http://www.w3.org/1999/xlink" xml:space="preserve" xmlns:serif="http://www.serif.com/" style="fill-rule:evenodd;clip-rule:evenodd;stroke-linejoin:round;stroke-miterlimit:2;">
    <g transform="matrix(1,0,0,1,-27.72,-244.521)">
        <g transform="matrix(11.0187,0,0,11.0187,621.568,409.617)">
            <path d="M0,3.592C-1.017,-3.327 -8.692,-9.473 -14.613,-12.239C-20.877,-15.164 -27.987,-15.631 -34.694,-14.207C-49.468,-11.069 -57.447,3.627 -52.359,17.759C-51.832,19.223 -49.745,18.648 -50.037,17.119C-52.527,4.049 -46.849,-6.725 -33.519,-9.947C-27.725,-11.348 -21.399,-10.516 -16.039,-7.996C-13.366,-6.741 -11.045,-4.936 -8.974,-2.851C-6.516,-0.376 -5.379,2.835 -3.232,5.473C-1.856,7.164 0.245,5.257 0,3.592" style="fill:rgb(60,60,59);fill-rule:nonzero;"/>
        </g>
        <g transform="matrix(11.0187,0,0,11.0187,695.927,569.208)">
            <path d="M0,-15.397C-0.272,-16.245 -1.565,-16.823 -2.218,-15.983C-3.474,-14.368 -3.327,-12.065 -3.526,-10.098C-3.776,-7.637 -4.03,-5.052 -4.82,-2.673C-8.736,-4.658 -12.484,-6.664 -16.099,-9.258C-17.119,-9.99 -17.992,-8.486 -17.334,-7.657C-14.233,-3.749 -9.168,-1.133 -4.784,1.055C-4.042,1.426 -2.905,1.322 -2.514,0.46C-1.354,-2.095 -0.886,-4.762 -0.516,-7.526C-0.212,-9.798 0.709,-13.182 0,-15.397" style="fill:rgb(60,60,59);fill-rule:nonzero;"/>
        </g>
    </g>
</svg>
