<?xml version="1.0" encoding="UTF-8" standalone="no"?>
<!DOCTYPE svg PUBLIC "-//W3C//DTD SVG 1.1//EN" "http://www.w3.org/Graphics/SVG/1.1/DTD/svg11.dtd">
<svg width="100%" height="100%" viewBox="0 0 575 625" version="1.1" xmlns="http://www.w3.org/2000/svg" xmlns:xlink="http://www.w3.org/1999/xlink" xml:space="preserve" xmlns:serif="http://www.serif.com/" style="fill-rule:evenodd;clip-rule:evenodd;stroke-linejoin:round;stroke-miterlimit:2;">
    <g transform="matrix(1,0,0,1,-73.6201,-146.083)">
        <g transform="matrix(10.4003,0,0,10.4003,484.722,360.089)">
            <path d="M0,27.044C-1.14,22.74 -0.558,13.725 5.923,17.521C10.855,20.41 3.982,27.619 1.689,29.738C1.511,29.903 1.325,30.065 1.141,30.228C0.637,29.178 0.269,28.061 0,27.044M-23.241,18.645C-21.797,11.322 -14.501,-5.509 -4.928,1.941C3.434,8.447 -12.318,19.952 -17.227,22.583C-19.081,23.577 -21.31,24.211 -23.593,24.434C-23.712,22.337 -23.568,20.304 -23.241,18.645M13.719,30.311C11.353,32.555 7.957,35.397 4.482,33.865C3.792,33.56 3.204,33.105 2.692,32.564C8.92,27.357 12.52,20.422 8.175,16.174C5.888,13.938 2.127,13.256 -0.384,15.369C-3.127,17.677 -3.145,22.622 -2.637,25.801C-2.314,27.824 -1.707,29.91 -0.701,31.735C-4.761,34.811 -9.83,37.104 -14.854,36.816C-20.11,36.515 -22.563,31.8 -23.344,26.803C-20.84,26.601 -18.305,25.931 -15.953,24.763C-9.519,21.569 -2.605,15.651 -0.583,8.527C1.158,2.391 -4.968,-3.218 -10.905,-2.486C-18.079,-1.602 -22.203,7.685 -24.363,13.515C-25.63,16.934 -26.264,20.755 -26.078,24.505C-30.886,24.3 -35.432,22.082 -36.735,17.057C-38.457,10.418 -33.942,2.758 -29.989,-2.181C-25.135,-8.245 -18.09,-13.207 -10.127,-13.5C-9.221,-13.534 -9.225,-14.859 -10.127,-14.903C-23.926,-15.57 -36.353,-2.154 -39.119,10.562C-41.339,20.768 -34.176,26.471 -25.852,26.852C-25.48,29.387 -24.705,31.844 -23.447,34.066C-18.612,42.614 -7.274,39.894 0.881,33.976C1.569,34.727 2.367,35.381 3.298,35.889C7.635,38.259 12.352,34.882 15.36,31.952C16.435,30.905 14.804,29.283 13.719,30.311" style="fill:rgb(60,60,59);fill-rule:nonzero;"/>
        </g>
        <g transform="matrix(10.4003,0,0,10.4003,490.271,242.347)">
            <path d="M0,-2.677C-2.816,-4.659 -6.023,-6.2 -9.104,-7.718C-10.089,-8.204 -11.751,-9.33 -12.909,-9.252C-13.109,-9.238 -13.307,-9.229 -13.49,-9.143C-13.727,-9.167 -13.9,-9.132 -14.102,-8.974C-14.316,-8.807 -14.295,-8.487 -14.193,-8.272C-14.095,-8.067 -13.878,-7.928 -13.685,-7.805C-13.528,-7.633 -13.329,-7.493 -13.141,-7.373C-11.922,-6.595 -10.608,-5.959 -9.346,-5.257C-7.168,-4.046 -4.924,-2.851 -2.833,-1.465C-4.429,-0.276 -6.219,0.665 -7.991,1.55C-9.809,2.457 -12.634,2.924 -14.099,4.347C-14.677,4.909 -14.414,5.978 -13.617,6.172C-11.64,6.653 -9.036,4.973 -7.298,4.16C-4.627,2.91 -1.869,1.446 0.265,-0.622C0.91,-1.248 0.673,-2.204 0,-2.677" style="fill:rgb(60,60,59);fill-rule:nonzero;"/>
        </g>
    </g>
</svg>
