<?xml version="1.0" encoding="UTF-8" standalone="no"?>
<!DOCTYPE svg PUBLIC "-//W3C//DTD SVG 1.1//EN" "http://www.w3.org/Graphics/SVG/1.1/DTD/svg11.dtd">
<svg width="100%" height="100%" viewBox="0 0 625 405" version="1.1" xmlns="http://www.w3.org/2000/svg" xmlns:xlink="http://www.w3.org/1999/xlink" xml:space="preserve" xmlns:serif="http://www.serif.com/" style="fill-rule:evenodd;clip-rule:evenodd;stroke-linejoin:round;stroke-miterlimit:2;">
    <g transform="matrix(1,0,0,1,-57.3922,-297.018)">
        <g>
            <g transform="matrix(9.05271,0,0,9.05271,327.712,444.245)">
                <path d="M0,14.3C-1.291,17.236 -3.575,19.447 -6.867,19.688C-12.535,20.104 -13.616,15.451 -12.36,11.073C-10.565,4.814 -4.977,-1.556 0.397,-5.279C0.421,-5.22 0.451,-5.171 0.474,-5.111C2.721,0.797 2.539,8.525 0,14.3M29.925,19.423C26.659,24.139 16.266,31.035 13.665,21.684C12.28,16.705 16.21,10.466 16.728,5.51C17.489,-1.776 13.282,-10.319 5.046,-9.623C4.449,-9.572 3.855,-9.47 3.263,-9.345C0.404,-13.873 -4.613,-16.735 -10.294,-16.199C-18.301,-15.442 -24.607,-8.194 -27.8,-1.367C-29.99,3.319 -30.586,8.616 -28.848,13.543C-28.214,15.341 -25.472,14.634 -25.967,12.749C-27.858,5.536 -23.249,-2.631 -18.256,-7.534C-13.219,-12.48 -5.104,-13.454 -0.995,-7.847C-6.017,-5.395 -10.485,-0.856 -13.36,3.31C-16.797,8.29 -20.41,17.935 -13.823,22.169C-7.445,26.268 -0.114,23.572 3.455,17.332C7.107,10.947 7.02,2.234 5.265,-4.693C5.045,-5.56 4.756,-6.397 4.407,-7.199C7.619,-7.928 10.696,-6.68 12.741,-3.441C15.995,1.712 14.334,7.268 12.777,12.64C11.309,17.706 9.663,25.819 16.5,27.951C22.505,29.824 29.301,25.801 31.338,20.019C31.647,19.143 30.396,18.742 29.925,19.423" style="fill:rgb(60,60,59);fill-rule:nonzero;"/>
            </g>
            <g transform="matrix(9.05271,0,0,9.05271,673.883,667.665)">
                <path d="M0,-10.004C-3.777,-11.099 -8.605,-11.677 -12.498,-10.87C-13.163,-10.732 -13.163,-9.669 -12.498,-9.531C-8.907,-8.783 -5.265,-8.957 -1.696,-8.031C-1.91,-6.891 -2.048,-5.741 -2.178,-4.585C-2.373,-2.86 -2.95,-0.982 -2.613,0.733C-2.428,1.673 -1.242,1.6 -0.782,0.972C0.049,-0.16 0.016,-1.69 0.155,-3.051C0.342,-4.893 0.451,-6.736 0.823,-8.554C0.954,-9.19 0.648,-9.816 0,-10.004" style="fill:rgb(60,60,59);fill-rule:nonzero;"/>
            </g>
        </g>
    </g>
</svg>
