<?xml version="1.0" encoding="UTF-8" standalone="no"?>
<!DOCTYPE svg PUBLIC "-//W3C//DTD SVG 1.1//EN" "http://www.w3.org/Graphics/SVG/1.1/DTD/svg11.dtd">
<svg width="100%" height="100%" viewBox="0 0 654 859" version="1.1" xmlns="http://www.w3.org/2000/svg" xmlns:xlink="http://www.w3.org/1999/xlink" xml:space="preserve" xmlns:serif="http://www.serif.com/" style="fill-rule:evenodd;clip-rule:evenodd;stroke-linejoin:round;stroke-miterlimit:2;">
    <g transform="matrix(1,0,0,1,-32.0306,-76.1494)">
        <g transform="matrix(14.3783,0,0,14.3783,387.418,679.464)">
            <path d="M0,-41.225C-5.08,-38.845 -6.74,-33.278 -7.391,-28.161C-8.378,-20.395 -7.632,-12.173 -9.991,-4.637C-10.996,-1.428 -14.281,1.627 -17.756,-0.226C-20.534,-1.708 -21.361,-6.063 -21.931,-8.831C-23.106,-14.536 -23.609,-23.293 -20.793,-28.636C-20.463,-29.262 -21.337,-29.758 -21.731,-29.184C-24.769,-24.766 -24.829,-18.395 -24.667,-13.252C-24.502,-8.029 -23.602,-1.336 -19.016,1.93C-15.089,4.726 -10.063,1.48 -8.208,-2.112C-4.932,-8.455 -5.659,-17.054 -5.148,-23.954C-4.782,-28.888 -3.779,-39.594 3.406,-39.436C7.807,-39.339 8.974,-29.102 9.443,-26.182C10.486,-19.693 10.702,-13.052 10.807,-6.491C10.873,-2.362 10.385,1.963 10.998,6.052C11.159,7.122 12.977,7.116 13.144,6.052C14.34,-1.557 15.2,-48.347 0,-41.225" style="fill:rgb(60,60,59);fill-rule:nonzero;"/>
        </g>
        <g transform="matrix(14.3783,0,0,14.3783,650.057,915.461)">
            <path d="M0,-11.989C-2.023,-8.704 -3.557,-5.168 -5.712,-1.973C-7.404,-3.719 -8.701,-5.747 -9.927,-7.874C-10.864,-9.499 -11.59,-12.167 -13.188,-13.24C-13.643,-13.545 -14.17,-13.131 -14.203,-12.657C-14.333,-10.785 -12.689,-8.343 -11.909,-6.716C-10.558,-3.894 -8.769,-1.184 -6.453,0.935C-5.774,1.556 -4.922,1.35 -4.399,0.67C-1.72,-2.813 0.156,-6.829 2.277,-10.658C3.102,-12.149 0.891,-13.436 0,-11.989" style="fill:rgb(60,60,59);fill-rule:nonzero;"/>
        </g>
    </g>
</svg>
